<?xml version="1.0" standalone="no"?>
<!DOCTYPE svg PUBLIC "-//W3C//DTD SVG 20010904//EN"
 "http://www.w3.org/TR/2001/REC-SVG-20010904/DTD/svg10.dtd">
<svg version="1.0" xmlns="http://www.w3.org/2000/svg"
 width="360.000000pt" height="360.000000pt" viewBox="0 0 360.000000 360.000000"
 preserveAspectRatio="xMidYMid meet">
<metadata>
Created by potrace 1.14, written by Peter Selinger 2001-2017
</metadata>
<g transform="translate(0.000000,360.000000) scale(0.100000,-0.100000)"
fill="#000000" stroke="none">
<path d="M0 1800 l0 -1800 1800 0 1800 0 0 1800 0 1800 -1800 0 -1800 0 0
-1800z m2035 552 c33 -12 83 -39 110 -60 170 -129 180 -414 18 -562 -86 -79
-197 -110 -390 -110 l-103 0 0 -210 0 -210 -145 0 -145 0 0 591 0 591 298 -4
c275 -4 301 -6 357 -26z"/>
<path d="M1670 2000 l0 -152 108 4 c117 3 152 15 186 61 27 37 29 131 3 170
-30 46 -72 61 -189 65 l-108 4 0 -152z"/>
</g>
</svg>
